<?xml version="1.0" encoding="UTF-8"?>
<svg width="560px" height="174px" viewBox="0 0 560 174" version="1.1" xmlns="http://www.w3.org/2000/svg" xmlns:xlink="http://www.w3.org/1999/xlink">
    <!-- Generator: Sketch 54 (76480) - https://sketchapp.com -->
    <title>编组 6复制</title>
    <desc>Created with Sketch.</desc>
    <g id="页面1" stroke="none" stroke-width="1" fill="none" fill-rule="evenodd">
        <g id="编组-6复制">
            <rect id="矩形复制-105" stroke="#505050" stroke-width="5.59872" fill="#FFFFFF" x="2.79936" y="2.79936" width="554.40128" height="168.40128"></rect>
            <rect id="矩形复制-104" fill="#505050" x="22.4" y="22.4516129" width="515.2" height="129.096774"></rect>
            <g id="编组-4复制" transform="translate(84.000000, 56.129032)">
                <rect id="矩形复制-101" fill="#FFFFFF" x="0" y="0" width="67.2" height="67.3548387"></rect>
                <rect id="矩形复制-100" fill="#505050" x="16.8" y="16.8387097" width="33.6" height="33.6774194"></rect>
            </g>
            <polyline id="矩形复制-99" stroke="#FFFFFF" stroke-width="16.79616" points="257.6 56.1290323 257.6 115.040492 201.6 115.040492 201.6 56.1290323"></polyline>
            <polyline id="矩形复制-97" stroke="#FFFFFF" stroke-width="16.79616" transform="translate(341.600000, 94.095002) scale(1, -1) translate(-341.600000, -94.095002) " points="369.6 64.7061329 369.6 123.483871 313.6 123.483871 313.6 64.7061329"></polyline>
            <g id="编组-5复制" transform="translate(420.000000, 56.129032)" stroke="#FFFFFF" stroke-width="16.79616">
                <path d="M2.8,67.3548387 L2.8,0" id="矩形复制-94" transform="translate(2.800000, 33.677419) scale(1, -1) translate(-2.800000, -33.677419) "></path>
                <path d="M58.8,67.3548387 L58.8,0" id="矩形复制-93" transform="translate(58.800000, 33.677419) scale(1, -1) translate(-58.800000, -33.677419) "></path>
                <path d="M2.8,14.0322581 L58.8,56.1290323" id="路径-2复制-9" stroke-linejoin="bevel"></path>
            </g>
            <path d="M313.6,95.4193548 L369.6,95.4193548" id="路径复制-12" stroke="#FFFFFF" stroke-width="16.79616"></path>
        </g>
    </g>
</svg>