<?xml version="1.0" encoding="UTF-8"?>
<svg width="275px" height="275px" viewBox="0 0 275 275" version="1.1" xmlns="http://www.w3.org/2000/svg" xmlns:xlink="http://www.w3.org/1999/xlink">
    <!-- Generator: Sketch 54 (76480) - https://sketchapp.com -->
    <title>编组 6复制 3</title>
    <desc>Created with Sketch.</desc>
    <g id="页面1" stroke="none" stroke-width="1" fill="none" fill-rule="evenodd">
        <g id="画板复制" transform="translate(-936.000000, -109.000000)">
            <g id="编组-6复制-3" transform="translate(936.000000, 109.000000)">
                <rect id="矩形复制-105" stroke="#505050" stroke-width="5.59872" fill="#FFFFFF" x="2.79936" y="2.79936" width="269.40128" height="269.40128"></rect>
                <rect id="矩形复制-104" fill="#505050" x="22" y="22" width="231" height="233"></rect>
                <g id="编组-4复制" transform="translate(49.000000, 56.129032)">
                    <rect id="矩形复制-101" fill="#FFFFFF" x="0" y="0" width="67.2" height="67.3548387"></rect>
                    <rect id="矩形复制-100" fill="#505050" x="16.8" y="16.8387097" width="33.6" height="33.6774194"></rect>
                </g>
                <polyline id="矩形复制-99" stroke="#FFFFFF" stroke-width="16.79616" points="215.2 56.1290323 215.2 115.040492 159.2 115.040492 159.2 56.1290323"></polyline>
                <polyline id="矩形复制-97" stroke="#FFFFFF" stroke-width="16.79616" transform="translate(85.000000, 192.965970) scale(1, -1) translate(-85.000000, -192.965970) " points="113 163.577101 113 222.354839 57 222.354839 57 163.577101"></polyline>
                <g id="编组-5复制" transform="translate(157.000000, 154.129032)" stroke="#FFFFFF" stroke-width="16.79616">
                    <path d="M1.8,68.2258065 L1.8,0.870967742" id="矩形复制-94" transform="translate(1.800000, 34.548387) scale(1, -1) translate(-1.800000, -34.548387) "></path>
                    <path d="M57.8,68.2258065 L57.8,0.870967742" id="矩形复制-93" transform="translate(57.800000, 34.548387) scale(1, -1) translate(-57.800000, -34.548387) "></path>
                    <path d="M1.8,14.9032258 L57.8,57" id="路径-2复制-9" stroke-linejoin="bevel"></path>
                </g>
                <path d="M57,194.290323 L113,194.290323" id="路径复制-12" stroke="#FFFFFF" stroke-width="16.79616"></path>
            </g>
        </g>
    </g>
</svg>